<svg width="53" height="47" viewBox="0 0 53 47" fill="none" xmlns="http://www.w3.org/2000/svg">
<g clip-path="url(#clip0_2_970)">
<path d="M19.4766 4.01465V9.92882C12.8339 10.8825 7.72656 16.5969 7.72656 23.5001C7.72656 31.071 13.864 37.2084 21.4349 37.2084C24.5134 37.2084 27.3569 36.194 29.6442 34.4785L33.8292 38.6634C30.453 41.4247 26.1349 43.0834 21.4349 43.0834C10.619 43.0834 1.85156 34.3159 1.85156 23.5001C1.85156 13.3461 9.5811 4.99578 19.4766 4.01465V4.01465ZM40.9203 25.4584C40.5286 29.3966 38.9737 32.9921 36.5983 35.8924L32.4133 31.7094C33.7587 29.9156 34.6713 27.781 35.0042 25.4584H40.9223H40.9203ZM23.3971 4.01465C32.6483 4.93311 40.0038 12.2906 40.9242 21.5417H35.0061C34.1484 15.5394 29.3994 10.7905 23.3971 9.93078V4.0127V4.01465Z" fill="white"/>
<path d="M26.9128 17.364L22.4308 30H18.5788L14.0968 17.364H17.3728L20.5048 26.904L23.6548 17.364H26.9128Z" fill="#8E52FF"/>
</g>
<defs>
<clipPath id="clip0_2_970">
<rect width="52.1087" height="47" fill="white"/>
</clipPath>
</defs>
</svg>
